<svg width="15" height="19" viewBox="0 0 15 19" fill="none" xmlns="http://www.w3.org/2000/svg">
<path d="M12.9013 2.44573H9.91857C9.91857 1.15493 8.84854 0.105469 7.53243 0.105469C6.21632 0.105469 5.14628 1.15493 5.14628 2.44573H2.1636C1.17558 2.44573 0.373985 3.23191 0.373985 4.20092V17.0724C0.373985 18.0414 1.17558 18.8275 2.1636 18.8275H12.9013C13.8893 18.8275 14.6909 18.0414 14.6909 17.0724V4.20092C14.6909 3.23191 13.8893 2.44573 12.9013 2.44573ZM3.95321 15.6097C3.45733 15.6097 3.0584 15.2184 3.0584 14.7321C3.0584 14.2458 3.45733 13.8545 3.95321 13.8545C4.44908 13.8545 4.84801 14.2458 4.84801 14.7321C4.84801 15.2184 4.44908 15.6097 3.95321 15.6097ZM3.95321 12.0993C3.45733 12.0993 3.0584 11.708 3.0584 11.2217C3.0584 10.7354 3.45733 10.3441 3.95321 10.3441C4.44908 10.3441 4.84801 10.7354 4.84801 11.2217C4.84801 11.708 4.44908 12.0993 3.95321 12.0993ZM3.95321 8.58891C3.45733 8.58891 3.0584 8.19765 3.0584 7.71131C3.0584 7.22498 3.45733 6.83372 3.95321 6.83372C4.44908 6.83372 4.84801 7.22498 4.84801 7.71131C4.84801 8.19765 4.44908 8.58891 3.95321 8.58891ZM7.53243 1.56813C8.0283 1.56813 8.42723 1.95939 8.42723 2.44573C8.42723 2.93206 8.0283 3.32333 7.53243 3.32333C7.03656 3.32333 6.63762 2.93206 6.63762 2.44573C6.63762 1.95939 7.03656 1.56813 7.53243 1.56813ZM12.3047 15.0246C12.3047 15.1855 12.1705 15.3172 12.0065 15.3172H6.63762C6.47357 15.3172 6.33935 15.1855 6.33935 15.0246V14.4396C6.33935 14.2787 6.47357 14.147 6.63762 14.147H12.0065C12.1705 14.147 12.3047 14.2787 12.3047 14.4396V15.0246ZM12.3047 11.5142C12.3047 11.6751 12.1705 11.8068 12.0065 11.8068H6.63762C6.47357 11.8068 6.33935 11.6751 6.33935 11.5142V10.9292C6.33935 10.7683 6.47357 10.6366 6.63762 10.6366H12.0065C12.1705 10.6366 12.3047 10.7683 12.3047 10.9292V11.5142ZM12.3047 8.00385C12.3047 8.16474 12.1705 8.29638 12.0065 8.29638H6.63762C6.47357 8.29638 6.33935 8.16474 6.33935 8.00385V7.41878C6.33935 7.25789 6.47357 7.12625 6.63762 7.12625H12.0065C12.1705 7.12625 12.3047 7.25789 12.3047 7.41878V8.00385Z" fill="white"/>
</svg>
