<svg width="33" height="22" viewBox="0 0 33 22" fill="none" xmlns="http://www.w3.org/2000/svg">
<path d="M1.03125 4.71429H27.8438C28.4135 4.71429 28.875 4.36268 28.875 3.92857V0.785714C28.875 0.351607 28.4135 0 27.8438 0H1.03125C0.461484 0 0 0.351607 0 0.785714V3.92857C0 4.36268 0.461484 4.71429 1.03125 4.71429ZM31.9688 8.64286H5.15625C4.58648 8.64286 4.125 8.99446 4.125 9.42857V12.5714C4.125 13.0055 4.58648 13.3571 5.15625 13.3571H31.9688C32.5385 13.3571 33 13.0055 33 12.5714V9.42857C33 8.99446 32.5385 8.64286 31.9688 8.64286ZM27.8438 17.2857H1.03125C0.461484 17.2857 0 17.6373 0 18.0714V21.2143C0 21.6484 0.461484 22 1.03125 22H27.8438C28.4135 22 28.875 21.6484 28.875 21.2143V18.0714C28.875 17.6373 28.4135 17.2857 27.8438 17.2857Z" fill="white"/>
</svg>
