<svg width="14" height="14" viewBox="0 0 14 14" fill="none" xmlns="http://www.w3.org/2000/svg">
<path d="M12.0781 3.58566C11.1953 3.59856 10.47 4.31875 10.4519 5.20156C10.439 5.82882 10.7746 6.37863 11.2779 6.66774V9.5743C11.2779 11.0534 9.98217 12.2589 8.38701 12.2589C6.83831 12.2589 5.56837 11.1205 5.49868 9.6982C7.37777 9.311 8.79741 7.64348 8.79741 5.65071V1.63935C8.79741 1.34508 8.58834 1.08953 8.29925 1.03274L6.67569 0.707498C6.34014 0.640384 6.01491 0.857214 5.9478 1.19278L5.86521 1.59805C5.7981 1.93362 6.01491 2.25886 6.35047 2.32598L7.14288 2.48344V5.61715C7.14288 6.98266 6.05363 8.11328 4.68819 8.12618C3.30985 8.13909 2.18704 7.02396 2.18704 5.64812V2.48602L2.97946 2.32856C3.31501 2.26145 3.53183 1.9362 3.46472 1.60063L3.3847 1.19537C3.31759 0.859795 2.99237 0.642965 2.65681 0.710079L1.03584 1.03016C0.746749 1.08953 0.537674 1.3425 0.537674 1.63935V5.65071C0.537674 7.64606 1.9599 9.31616 3.84415 9.6982C3.91126 12.0317 5.92199 13.9109 8.38443 13.9109C10.8882 13.9109 12.9273 11.9646 12.9273 9.5743V6.66774C13.4203 6.38122 13.7533 5.84947 13.7533 5.2377C13.7533 4.31617 12.9996 3.57275 12.0781 3.58566ZM12.1013 5.65071C11.8742 5.65071 11.6883 5.46485 11.6883 5.2377C11.6883 5.01054 11.8742 4.82469 12.1013 4.82469C12.3285 4.82469 12.5143 5.01054 12.5143 5.2377C12.5143 5.46485 12.3285 5.65071 12.1013 5.65071Z" fill="white"/>
</svg>
