<svg width="26" height="26" viewBox="0 0 26 26" fill="none" xmlns="http://www.w3.org/2000/svg">
<path d="M12.3965 24.7192C5.56332 24.7192 0 19.1725 0 12.3596C0 5.54675 5.56332 0 12.3965 0C19.2297 0 24.7931 5.54675 24.7931 12.3596C24.7931 19.1725 19.2297 24.7192 12.3965 24.7192ZM12.3965 1.80872C6.55504 1.80872 1.81413 6.54758 1.81413 12.3596C1.81413 18.1717 6.55504 22.9105 12.3965 22.9105C18.238 22.9105 22.9789 18.1717 22.9789 12.3596C22.9789 6.54758 18.238 1.80872 12.3965 1.80872Z" fill="#3B2616"/>
<path d="M25.096 25.9244C24.8662 25.9244 24.6364 25.84 24.455 25.6591L22.0362 23.2475C21.6854 22.8978 21.6854 22.319 22.0362 21.9693C22.3869 21.6196 22.9674 21.6196 23.3181 21.9693L25.737 24.3809C26.0877 24.7306 26.0877 25.3094 25.737 25.6591C25.5556 25.84 25.3258 25.9244 25.096 25.9244Z" fill="#3B2616"/>
</svg>
