<svg width="40" height="32" viewBox="0 0 40 32" fill="none" xmlns="http://www.w3.org/2000/svg">
<g filter="url(#filter0_d_351_1428)">
<path d="M18.1273 22.2891C18.1273 24.502 15.7273 26.0937 12.7723 26.0937C9.80234 26.0937 7.40234 24.5149 7.40234 22.2891" stroke="#3B2616" stroke-width="1.5" stroke-linecap="round" stroke-linejoin="round"/>
<path d="M18.1251 18.7305C18.1251 19.3775 17.9151 19.9728 17.5551 20.4905C16.6701 21.7457 14.8551 22.5352 12.7551 22.5352C10.6551 22.5352 8.84014 21.7328 7.95516 20.4905C7.59516 19.9728 7.38525 19.3775 7.38525 18.7305C7.38525 17.6175 7.98522 16.6211 8.9452 15.8964C9.92019 15.1587 11.2551 14.7188 12.7401 14.7188C14.2251 14.7188 15.5601 15.1717 16.5351 15.8964C17.5251 16.6081 18.1251 17.6175 18.1251 18.7305Z" stroke="#3B2616" stroke-width="1.5" stroke-linecap="round" stroke-linejoin="round"/>
<path d="M34.9999 14.6676V17.3336C34.9999 18.0453 34.3399 18.6275 33.4999 18.6534H30.5598C28.9398 18.6534 27.455 17.6311 27.32 16.2334C27.23 15.4182 27.5899 14.6546 28.2198 14.1241C28.7748 13.6323 29.54 13.3477 30.38 13.3477H33.4999C34.3399 13.3735 34.9999 13.9558 34.9999 14.6676Z" stroke="#3B2616" stroke-width="1.5" stroke-linecap="round" stroke-linejoin="round"/>
<path d="M5 14.0587V11.4705C5 7.95056 7.45997 5.49176 11.2849 5.07765C11.6749 5.02588 12.0799 5 12.4999 5H25.9997C26.3897 5 26.7647 5.01293 27.1247 5.06469C30.9946 5.45292 33.4996 7.92468 33.4996 11.4705V13.347H30.3796C29.5397 13.347 28.7747 13.6317 28.2197 14.1235C27.5897 14.654 27.2297 15.4176 27.3197 16.2328C27.4547 17.6305 28.9397 18.6528 30.5596 18.6528H33.4996V20.5293C33.4996 24.4116 30.4996 26.9998 25.9997 26.9998H22.2498" stroke="#3B2616" stroke-width="1.5" stroke-linecap="round" stroke-linejoin="round"/>
</g>
<defs>
<filter id="filter0_d_351_1428" x="0.25" y="0.25" width="39.4999" height="31.5" filterUnits="userSpaceOnUse" color-interpolation-filters="sRGB">
<feFlood flood-opacity="0" result="BackgroundImageFix"/>
<feColorMatrix in="SourceAlpha" type="matrix" values="0 0 0 0 0 0 0 0 0 0 0 0 0 0 0 0 0 0 127 0" result="hardAlpha"/>
<feOffset/>
<feGaussianBlur stdDeviation="2"/>
<feComposite in2="hardAlpha" operator="out"/>
<feColorMatrix type="matrix" values="0 0 0 0 0 0 0 0 0 0 0 0 0 0 0 0 0 0 0.25 0"/>
<feBlend mode="normal" in2="BackgroundImageFix" result="effect1_dropShadow_351_1428"/>
<feBlend mode="normal" in="SourceGraphic" in2="effect1_dropShadow_351_1428" result="shape"/>
</filter>
</defs>
</svg>
