<svg width="29" height="28" viewBox="0 0 29 28" fill="none" xmlns="http://www.w3.org/2000/svg">
<path d="M24.7098 5.7018C24.1241 5.12389 23.4288 4.66545 22.6634 4.35267C21.898 4.03989 21.0777 3.87891 20.2493 3.87891C19.4208 3.87891 18.6005 4.03989 17.8351 4.35267C17.0698 4.66545 16.3744 5.12389 15.7887 5.7018L14.5733 6.90061L13.3578 5.7018C12.1748 4.53501 10.5703 3.87951 8.89726 3.87951C7.22423 3.87951 5.61973 4.53501 4.43672 5.7018C3.25372 6.8686 2.58911 8.45111 2.58911 10.1012C2.58911 11.7513 3.25372 13.3338 4.43672 14.5006L5.65219 15.6994L14.5733 24.4982L23.4943 15.6994L24.7098 14.5006C25.2957 13.923 25.7605 13.2371 26.0777 12.4823C26.3948 11.7274 26.558 10.9183 26.558 10.1012C26.558 9.28411 26.3948 8.47502 26.0777 7.72015C25.7605 6.96529 25.2957 6.27944 24.7098 5.7018Z" stroke="black" stroke-width="2" stroke-linecap="round" stroke-linejoin="round"/>
</svg>
