<svg width="25" height="26" viewBox="0 0 25 26" fill="none" xmlns="http://www.w3.org/2000/svg">
<path d="M15.9582 13.0935L15.5734 12.4614C15.3243 12.6131 15.1875 12.8968 15.2241 13.1862C15.2605 13.4754 15.4634 13.7163 15.7424 13.8014L15.9582 13.0935ZM9.04173 13.0935L9.25757 13.8014C9.5365 13.7163 9.73943 13.4754 9.77599 13.1862C9.8124 12.8968 9.67564 12.6131 9.42653 12.4614L9.04173 13.0935ZM18.4203 7.40032C18.4203 9.54344 17.282 11.4214 15.5734 12.4614L16.343 13.7257C18.4743 12.4282 19.9004 10.0812 19.9004 7.40032H18.4203ZM12.5 1.48006C15.7697 1.48006 18.4203 4.13065 18.4203 7.40032H19.9004C19.9004 3.31324 16.5871 0 12.5 0V1.48006ZM6.57973 7.40032C6.57973 4.13065 9.23032 1.48006 12.5 1.48006V0C8.41291 0 5.09967 3.31324 5.09967 7.40032H6.57973ZM9.42653 12.4614C7.71802 11.4214 6.57973 9.54345 6.57973 7.40032H5.09967C5.09967 10.0812 6.52565 12.4282 8.65694 13.7257L9.42653 12.4614ZM8.8259 12.3856C4.15371 13.8103 0.6352 17.8798 0.0163552 22.8525L1.48508 23.0353C2.03063 18.6515 5.13496 15.0585 9.25757 13.8014L8.8259 12.3856ZM0.0163552 22.8525C-0.147207 24.1668 0.941558 25.1611 2.13954 25.1611V23.681C1.7027 23.681 1.44675 23.3434 1.48508 23.0353L0.0163552 22.8525ZM2.13954 25.1611H22.8605V23.681H2.13954V25.1611ZM22.8605 25.1611C24.0585 25.1611 25.1472 24.1668 24.9836 22.8525L23.5148 23.0353C23.5532 23.3434 23.2973 23.681 22.8605 23.681V25.1611ZM24.9836 22.8525C24.3648 17.8798 20.8463 13.8103 16.174 12.3856L15.7424 13.8014C19.865 15.0585 22.9693 18.6515 23.5148 23.0353L24.9836 22.8525Z" fill="black"/>
</svg>
