<svg width="17" height="17" viewBox="0 0 17 17" fill="none" xmlns="http://www.w3.org/2000/svg">
<path fill-rule="evenodd" clip-rule="evenodd" d="M7.04866 12.6809C10.1592 12.6809 12.6806 10.1592 12.6806 7.04887C12.6806 3.93833 10.159 1.41688 7.04866 1.41688C3.93813 1.41688 1.41667 3.93833 1.41667 7.04887C1.41667 10.1594 3.93813 12.6809 7.04866 12.6809ZM7.04866 14.0976C10.9417 14.0976 14.0974 10.9417 14.0974 7.04878C14.0974 3.15593 10.9416 0 7.04866 0C3.15581 0 -0.00012207 3.15585 -0.00012207 7.04878C-0.00012207 10.9418 3.15573 14.0976 7.04866 14.0976Z" fill="#303030"/>
<path fill-rule="evenodd" clip-rule="evenodd" d="M7.04868 4.28194C5.5209 4.28194 4.28231 5.52049 4.28231 7.04831C4.28231 7.43963 3.9651 7.75666 3.57396 7.75666C3.18281 7.75666 2.8656 7.43962 2.8656 7.04831C2.8656 4.73805 4.73842 2.86523 7.04868 2.86523C7.43999 2.86523 7.75703 3.18244 7.75703 3.57359C7.75703 3.96474 7.43999 4.28194 7.04868 4.28194Z" fill="#303030"/>
<path fill-rule="evenodd" clip-rule="evenodd" d="M11.0216 11.0219C11.298 10.7453 11.7466 10.7453 12.0232 11.0219L16.7929 15.7916C17.0697 16.0683 17.0697 16.5168 16.7929 16.7935C16.5165 17.0701 16.0679 17.0701 15.7913 16.7935L11.0216 12.0238C10.7449 11.7471 10.7449 11.2986 11.0216 11.0221V11.0219Z" fill="#303030"/>
</svg>
