<svg width="34" height="43" viewBox="0 0 34 43" fill="none" xmlns="http://www.w3.org/2000/svg">
<path d="M21.0089 11.4757C20.6632 9.99507 18.8363 8.49894 16.9229 8.2872C14.4478 8.00148 12.274 9.83061 11.5589 12.4183C11.1363 13.9484 9.45896 18.4917 8.77673 20.3237L2.19599 20.3566C1.60378 20.3566 1.04908 20.5881 0.633518 21.0089C0.21908 21.4274 -0.00602659 21.9838 0.000312552 22.5737C0.033214 25.652 0.0816988 37.8571 0.000889761 40.7459C-0.0158491 41.3266 0.204068 41.8825 0.620235 42.309C1.04737 42.7483 1.63843 42.9999 2.24507 42.9999H7.15192C8.29941 42.9999 9.23334 42.1133 9.32909 40.9906H22.9801C25.3744 40.9906 27.2999 39.05 27.999 37.0985L32.8804 27.3541C33.457 25.6381 33.143 23.6975 32.0377 22.1598C31.0097 20.7306 29.4766 19.9098 27.8298 19.9098L20.3313 19.9092C20.3313 19.9092 21.1197 15.9541 21.2219 14.6151C21.2813 13.8306 21.1884 12.2421 21.0089 11.4762L21.0089 11.4757ZM6.10232 40.188H2.8237C2.882 36.6716 2.84679 26.7725 2.81677 23.1684H6.10219L6.10232 40.188ZM27.8283 22.7192C28.5579 22.7192 29.2609 23.1134 29.7532 23.7997C30.3039 24.5651 30.4875 25.5429 30.241 26.3711L25.3681 36.0994C25.0241 37.1217 24.0359 38.1785 22.9767 38.1785L9.34649 38.1791V23.0818L10.1205 22.9722C10.5534 22.9104 10.9176 22.6201 11.07 22.2103C11.7806 20.3066 13.8043 14.8468 14.2684 13.1688C14.5322 12.2152 15.2693 11.0729 16.6108 11.2369C17.5996 11.3454 18.3834 12.1783 18.4319 13.1503L17.1026 22.7205L27.8283 22.7199L27.8283 22.7192Z" fill="#ED1C24"/>
<path d="M11.085 9.05412C11.4446 9.05412 11.8053 8.91674 12.0795 8.64256C12.6279 8.09305 12.6279 7.20473 12.0789 6.65526L9.20962 3.78713C8.66011 3.23762 7.77064 3.23762 7.22173 3.78713C6.67339 4.33664 6.67339 5.22497 7.22231 5.77443L10.0916 8.64256C10.3652 8.91674 10.7248 9.05412 11.085 9.05412H11.085Z" fill="#ED1C24"/>
<path d="M16.3297 6.80661C16.9993 6.80661 17.5926 6.32637 17.7127 5.64411L18.4123 1.64749C18.545 0.882111 18.0354 0.154323 17.2694 0.0197085C16.5057 -0.107855 15.7767 0.396629 15.6422 1.16201L14.9432 5.15862C14.8093 5.92401 15.3201 6.65179 16.0861 6.78641C16.1675 6.79969 16.2494 6.80661 16.3296 6.80661H16.3297Z" fill="#ED1C24"/>
</svg>
