<svg width="44" height="45" viewBox="0 0 44 45" fill="none" xmlns="http://www.w3.org/2000/svg">
<g clip-path="url(#clip0_383_209)">
<path d="M9.65431 18.3094C10.5121 15.6552 12.1676 13.3459 14.3845 11.7109C16.6015 10.0758 19.2667 9.19863 22 9.20438C25.0983 9.20438 27.8996 10.3294 30.0996 12.1706L36.5016 5.625C32.6003 2.14687 27.6008 0 22 0C13.3283 0 5.86298 5.05875 2.27332 12.4688L9.65431 18.3094Z" fill="#EA4335"/>
<path d="M29.4067 33.7738C27.4083 35.092 24.871 35.7951 22 35.7951C19.2776 35.8008 16.6225 34.9306 14.4104 33.3076C12.1984 31.6847 10.5416 29.3912 9.67449 26.752L2.26782 32.5026C4.08511 36.2644 6.89748 39.4296 10.3855 41.6386C13.8735 43.8477 17.8974 45.012 22 44.9995C27.3772 44.9995 32.5142 43.0438 36.3623 39.3745L29.4085 33.7738H29.4067Z" fill="#34A853"/>
<path d="M36.3623 39.3745C40.3865 35.5345 42.999 29.8195 42.999 22.4995C42.999 21.1682 42.7992 19.7376 42.5003 18.4082H22V27.1026H33.7993C33.2182 30.0257 31.6543 32.2888 29.4085 33.7738L36.3623 39.3745Z" fill="#4A90E2"/>
<path d="M9.67459 26.7525C9.22608 25.3817 8.99822 23.9455 8.99992 22.5C8.99992 21.0337 9.22909 19.6256 9.65442 18.3094L2.27342 12.4688C0.763451 15.5863 -0.0149353 19.021 9.14297e-05 22.5C9.14297e-05 26.1 0.815925 29.4937 2.26792 32.5031L9.67459 26.7525Z" fill="#FBBC05"/>
</g>
<defs>
<clipPath id="clip0_383_209">
<rect width="44" height="45" fill="white"/>
</clipPath>
</defs>
</svg>
