<svg width="44" height="45" viewBox="0 0 44 45" fill="none" xmlns="http://www.w3.org/2000/svg">
<g clip-path="url(#clip0_383_204)">
<path d="M37.4793 38.3369H30.9599V27.895C30.9599 25.405 30.9164 22.1996 27.5692 22.1996C24.1736 22.1996 23.654 24.9126 23.654 27.7137V38.3362H17.1348V16.8635H23.3933V19.7979H23.4809C24.1073 18.7027 25.0123 17.8016 26.0998 17.1908C27.1872 16.58 28.4163 16.2822 29.6561 16.3293C36.2638 16.3293 37.482 20.7744 37.482 26.5573L37.4793 38.3369ZM9.77854 13.9284C7.68906 13.9288 5.99488 12.1966 5.99454 10.0597C5.9942 7.92269 7.68768 6.19001 9.77716 6.18966C11.8666 6.18913 13.5608 7.92128 13.5612 10.0583C13.5613 11.0845 13.1629 12.0687 12.4536 12.7945C11.7442 13.5203 10.782 13.9282 9.77854 13.9284ZM13.0383 38.3371H6.51206V16.8635H13.0381V38.3369L13.0383 38.3371ZM40.7294 -0.00258424H3.23612C1.46409 -0.0229749 0.0108835 1.4288 -0.0107727 3.24111V41.7465C0.010196 43.5597 1.46323 45.0129 3.23595 44.9939H40.7294C42.5059 45.0164 43.9646 43.5632 43.9892 41.7465V3.23812C43.964 1.4223 42.5051 -0.029303 40.7294 -0.00557252" fill="#0A66C2"/>
</g>
<defs>
<clipPath id="clip0_383_204">
<rect width="44" height="45" fill="white"/>
</clipPath>
</defs>
</svg>
