<svg width="27" height="33" viewBox="0 0 27 33" fill="none" xmlns="http://www.w3.org/2000/svg">
<g filter="url(#filter0_d_382_166)">
<path d="M13.494 15.3506C13.3694 15.3395 13.2198 15.3395 13.0827 15.3506C10.1164 15.2617 7.76083 13.0962 7.76083 10.4308C7.76083 7.70999 10.2286 5.5 13.2946 5.5C16.3481 5.5 18.8283 7.70999 18.8283 10.4308C18.8158 13.0962 16.4603 15.2617 13.494 15.3506Z" stroke="#3B2616" stroke-width="1.75" stroke-linecap="round" stroke-linejoin="round"/>
<path d="M7.26209 19.4481C4.24597 21.2471 4.24597 24.179 7.26209 25.967C10.6895 28.0104 16.3105 28.0104 19.7379 25.967C22.754 24.1679 22.754 21.236 19.7379 19.4481C16.323 17.4158 10.702 17.4158 7.26209 19.4481Z" stroke="#3B2616" stroke-width="1.75" stroke-linecap="round" stroke-linejoin="round"/>
</g>
<defs>
<filter id="filter0_d_382_166" x="0.125" y="0.625" width="26.75" height="31.75" filterUnits="userSpaceOnUse" color-interpolation-filters="sRGB">
<feFlood flood-opacity="0" result="BackgroundImageFix"/>
<feColorMatrix in="SourceAlpha" type="matrix" values="0 0 0 0 0 0 0 0 0 0 0 0 0 0 0 0 0 0 127 0" result="hardAlpha"/>
<feOffset/>
<feGaussianBlur stdDeviation="2"/>
<feComposite in2="hardAlpha" operator="out"/>
<feColorMatrix type="matrix" values="0 0 0 0 0 0 0 0 0 0 0 0 0 0 0 0 0 0 0.25 0"/>
<feBlend mode="normal" in2="BackgroundImageFix" result="effect1_dropShadow_382_166"/>
<feBlend mode="normal" in="SourceGraphic" in2="effect1_dropShadow_382_166" result="shape"/>
</filter>
</defs>
</svg>
